<?xml version="1.0" standalone="yes"?>

<svg version="1.1" viewBox="0.0 0.0 960.0 540.0" fill="none" stroke="none" stroke-linecap="square" stroke-miterlimit="10" xmlns="http://www.w3.org/2000/svg" xmlns:xlink="http://www.w3.org/1999/xlink"><clipPath id="p.0"><path d="m0 0l960.0 0l0 540.0l-960.0 0l0 -540.0z" clip-rule="nonzero"></path></clipPath><g clip-path="url(#p.0)"><path fill="#002058" d="m0 0l960.0 0l0 540.0l-960.0 0z" fill-rule="nonzero"></path><path fill="#000000" fill-opacity="0.0" d="m264.76932 367.96756l0 0c0 11.158752 -9.045944 20.204712 -20.204712 20.204712l0 0c-5.3586273 0 -10.497772 -2.1286926 -14.286896 -5.917816c-3.7891235 -3.7891235 -5.9178314 -8.928284 -5.9178314 -14.286896l0 0c0 -11.158752 9.045959 -20.204712 20.204727 -20.204712l0 0c11.158768 0 20.204712 9.045959 20.204712 20.204712z" fill-rule="nonzero"></path><path stroke="#e87722" stroke-width="4.0" stroke-linejoin="round" stroke-linecap="butt" d="m264.76932 367.96756l0 0c0 11.158752 -9.045944 20.204712 -20.204712 20.204712l0 0c-5.3586273 0 -10.497772 -2.1286926 -14.286896 -5.917816c-3.7891235 -3.7891235 -5.9178314 -8.928284 -5.9178314 -14.286896l0 0c0 -11.158752 9.045959 -20.204712 20.204727 -20.204712l0 0c11.158768 0 20.204712 9.045959 20.204712 20.204712z" fill-rule="nonzero"></path><path fill="#000000" fill-opacity="0.0" d="m374.22076 460.65652l0 0c0 16.307648 -12.747528 29.527557 -28.472443 29.527557l0 0c-7.551361 0 -14.7934265 -3.1109009 -20.133057 -8.648407c-5.3395996 -5.537506 -8.339386 -13.047943 -8.339386 -20.87915l0 0c0 -16.307617 12.747559 -29.527557 28.472443 -29.527557l0 0c15.724915 0 28.472443 13.21994 28.472443 29.527557z" fill-rule="nonzero"></path><path stroke="#e87722" stroke-width="4.0" stroke-linejoin="round" stroke-linecap="butt" d="m374.22076 460.65652l0 0c0 16.307648 -12.747528 29.527557 -28.472443 29.527557l0 0c-7.551361 0 -14.7934265 -3.1109009 -20.133057 -8.648407c-5.3395996 -5.537506 -8.339386 -13.047943 -8.339386 -20.87915l0 0c0 -16.307617 12.747559 -29.527557 28.472443 -29.527557l0 0c15.724915 0 28.472443 13.21994 28.472443 29.527557z" fill-rule="nonzero"></path><path fill="#000000" fill-opacity="0.0" d="m431.57117 367.96756l0 0c0 11.158752 -9.045959 20.204712 -20.204712 20.204712l0 0c-5.3586426 0 -10.497803 -2.1286926 -14.286896 -5.917816c-3.7891235 -3.7891235 -5.9178467 -8.928284 -5.9178467 -14.286896l0 0c0 -11.158752 9.045959 -20.204712 20.204742 -20.204712l0 0c11.158752 0 20.204712 9.045959 20.204712 20.204712z" fill-rule="nonzero"></path><path stroke="#e87722" stroke-width="4.0" stroke-linejoin="round" stroke-linecap="butt" d="m431.57117 367.96756l0 0c0 11.158752 -9.045959 20.204712 -20.204712 20.204712l0 0c-5.3586426 0 -10.497803 -2.1286926 -14.286896 -5.917816c-3.7891235 -3.7891235 -5.9178467 -8.928284 -5.9178467 -14.286896l0 0c0 -11.158752 9.045959 -20.204712 20.204742 -20.204712l0 0c11.158752 0 20.204712 9.045959 20.204712 20.204712z" fill-rule="nonzero"></path><path fill="#000000" fill-opacity="0.0" d="m172.09479 431.12897l0 0c0 11.158783 -9.045959 20.204742 -20.204727 20.204742l0 0c-5.3586273 0 -10.497772 -2.1287231 -14.286896 -5.9178467c-3.7891235 -3.789093 -5.9178314 -8.928253 -5.9178314 -14.286896l0 0c0 -11.158752 9.045975 -20.204712 20.204727 -20.204712l0 0c11.158768 0 20.204727 9.045959 20.204727 20.204712z" fill-rule="nonzero"></path><path stroke="#e87722" stroke-width="4.0" stroke-linejoin="round" stroke-linecap="butt" d="m172.09479 431.12897l0 0c0 11.158783 -9.045959 20.204742 -20.204727 20.204742l0 0c-5.3586273 0 -10.497772 -2.1287231 -14.286896 -5.9178467c-3.7891235 -3.789093 -5.9178314 -8.928253 -5.9178314 -14.286896l0 0c0 -11.158752 9.045975 -20.204712 20.204727 -20.204712l0 0c11.158768 0 20.204727 9.045959 20.204727 20.204712z" fill-rule="nonzero"></path><path fill="#000000" fill-opacity="0.0" d="m546.6063 455.12766l0 0c0 13.254852 -10.597107 24.0 -23.669312 24.0l0 0c-6.277466 0 -12.297882 -2.5285645 -16.736725 -7.029419c-4.438843 -4.500885 -6.932556 -10.605377 -6.932556 -16.970581l0 0c0 -13.254822 10.597076 -24.0 23.669281 -24.0l0 0c13.072205 0 23.669312 10.745178 23.669312 24.0z" fill-rule="nonzero"></path><path stroke="#e87722" stroke-width="4.0" stroke-linejoin="round" stroke-linecap="butt" d="m546.6063 455.12766l0 0c0 13.254852 -10.597107 24.0 -23.669312 24.0l0 0c-6.277466 0 -12.297882 -2.5285645 -16.736725 -7.029419c-4.438843 -4.500885 -6.932556 -10.605377 -6.932556 -16.970581l0 0c0 -13.254822 10.597076 -24.0 23.669281 -24.0l0 0c13.072205 0 23.669312 10.745178 23.669312 24.0z" fill-rule="nonzero"></path><path fill="#000000" fill-opacity="0.0" d="m97.9688 371.76285l0 0c0 13.254822 -11.795708 24.0 -26.346458 24.0l0 0c-14.550743 0 -26.346455 -10.745178 -26.346455 -24.0l0 0c0 -13.254852 11.7957115 -24.0 26.346455 -24.0l0 0c14.550751 0 26.346458 10.745148 26.346458 24.0z" fill-rule="nonzero"></path><path stroke="#e87722" stroke-width="4.0" stroke-linejoin="round" stroke-linecap="butt" d="m97.9688 371.76285l0 0c0 13.254822 -11.795708 24.0 -26.346458 24.0l0 0c-14.550743 0 -26.346455 -10.745178 -26.346455 -24.0l0 0c0 -13.254852 11.7957115 -24.0 26.346455 -24.0l0 0c14.550751 0 26.346458 10.745148 26.346458 24.0z" fill-rule="nonzero"></path><path fill="#000000" fill-opacity="0.0" d="m179.24178 272.22742l0 0c0 11.158752 -9.045975 20.204712 -20.204727 20.204712l0 0c-5.3586273 0 -10.497772 -2.1286926 -14.286896 -5.917816c-3.7891235 -3.7891235 -5.9178314 -8.928284 -5.9178314 -14.286896l0 0c0 -11.158783 9.045959 -20.204742 20.204727 -20.204742l0 0c11.158752 0 20.204727 9.045959 20.204727 20.204742z" fill-rule="nonzero"></path><path stroke="#e87722" stroke-width="4.0" stroke-linejoin="round" stroke-linecap="butt" d="m179.24178 272.22742l0 0c0 11.158752 -9.045975 20.204712 -20.204727 20.204712l0 0c-5.3586273 0 -10.497772 -2.1286926 -14.286896 -5.917816c-3.7891235 -3.7891235 -5.9178314 -8.928284 -5.9178314 -14.286896l0 0c0 -11.158783 9.045959 -20.204742 20.204727 -20.204742l0 0c11.158752 0 20.204727 9.045959 20.204727 20.204742z" fill-rule="nonzero"></path><path fill="#000000" fill-opacity="0.0" d="m361.64072 261.19553l0 0c0 15.133484 -11.795715 27.40158 -26.346466 27.40158l0 0c-6.987488 0 -13.688812 -2.8869324 -18.62973 -8.025726c-4.9409485 -5.138794 -7.7167053 -12.10849 -7.7167053 -19.375854l0 0c0 -15.133453 11.795715 -27.401566 26.346436 -27.401566l0 0c14.550751 0 26.346466 12.268112 26.346466 27.401566z" fill-rule="nonzero"></path><path stroke="#e87722" stroke-width="4.0" stroke-linejoin="round" stroke-linecap="butt" d="m361.64072 261.19553l0 0c0 15.133484 -11.795715 27.40158 -26.346466 27.40158l0 0c-6.987488 0 -13.688812 -2.8869324 -18.62973 -8.025726c-4.9409485 -5.138794 -7.7167053 -12.10849 -7.7167053 -19.375854l0 0c0 -15.133453 11.795715 -27.401566 26.346436 -27.401566l0 0c14.550751 0 26.346466 12.268112 26.346466 27.401566z" fill-rule="nonzero"></path><path fill="#000000" fill-opacity="0.0" d="m499.26773 455.12766l-125.0394 5.5433044" fill-rule="nonzero"></path><path stroke="#e87722" stroke-width="3.0" stroke-linejoin="round" stroke-linecap="butt" d="m499.26773 455.12766l-125.0394 5.5433044" fill-rule="nonzero"></path><path fill="#000000" fill-opacity="0.0" d="m317.27588 460.65652l-145.16534 -29.51181" fill-rule="nonzero"></path><path stroke="#e87722" stroke-width="3.0" stroke-linejoin="round" stroke-linecap="butt" d="m317.27588 460.65652l-145.16534 -29.51181" fill-rule="nonzero"></path><path fill="#000000" fill-opacity="0.0" d="m506.2003 438.1571l-80.53543 -55.905518" fill-rule="nonzero"></path><path stroke="#e87722" stroke-width="3.0" stroke-linejoin="round" stroke-linecap="butt" d="m506.2003 438.1571l-80.53543 -55.905518" fill-rule="nonzero"></path><path fill="#000000" fill-opacity="0.0" d="m365.88138 439.7774l31.212616 -57.51181" fill-rule="nonzero"></path><path stroke="#e87722" stroke-width="3.0" stroke-linejoin="round" stroke-linecap="butt" d="m365.88138 439.7774l31.212616 -57.51181" fill-rule="nonzero"></path><path fill="#000000" fill-opacity="0.0" d="m325.61526 439.7774l-66.77164 -57.51181" fill-rule="nonzero"></path><path stroke="#e87722" stroke-width="3.0" stroke-linejoin="round" stroke-linecap="butt" d="m325.61526 439.7774l-66.77164 -57.51181" fill-rule="nonzero"></path><path fill="#000000" fill-opacity="0.0" d="m345.74832 431.12897l-10.456696 -142.51968" fill-rule="nonzero"></path><path stroke="#e87722" stroke-width="3.0" stroke-linejoin="round" stroke-linecap="butt" d="m345.74832 431.12897l-10.456696 -142.51968" fill-rule="nonzero"></path><path fill="#000000" fill-opacity="0.0" d="m230.27771 353.68066l-56.944885 -67.18109" fill-rule="nonzero"></path><path stroke="#e87722" stroke-width="3.0" stroke-linejoin="round" stroke-linecap="butt" d="m230.27771 353.68066l-56.944885 -67.18109" fill-rule="nonzero"></path><path fill="#000000" fill-opacity="0.0" d="m397.07956 353.68066l-43.149628 -73.102356" fill-rule="nonzero"></path><path stroke="#e87722" stroke-width="3.0" stroke-linejoin="round" stroke-linecap="butt" d="m397.07956 353.68066l-43.149628 -73.102356" fill-rule="nonzero"></path><path fill="#000000" fill-opacity="0.0" d="m316.66452 280.57138l-57.826782 73.102356" fill-rule="nonzero"></path><path stroke="#e87722" stroke-width="3.0" stroke-linejoin="round" stroke-linecap="butt" d="m316.66452 280.57138l-57.826782 73.102356" fill-rule="nonzero"></path><path fill="#000000" fill-opacity="0.0" d="m308.9478 261.19553l-129.70079 11.023621" fill-rule="nonzero"></path><path stroke="#e87722" stroke-width="3.0" stroke-linejoin="round" stroke-linecap="butt" d="m308.9478 261.19553l-129.70079 11.023621" fill-rule="nonzero"></path><path fill="#000000" fill-opacity="0.0" d="m230.27771 382.25446l-64.0945 34.582672" fill-rule="nonzero"></path><path stroke="#e87722" stroke-width="3.0" stroke-linejoin="round" stroke-linecap="butt" d="m230.27771 382.25446l-64.0945 34.582672" fill-rule="nonzero"></path><path fill="#000000" fill-opacity="0.0" d="m137.60316 416.84207l-47.338577 -28.094482" fill-rule="nonzero"></path><path stroke="#e87722" stroke-width="3.0" stroke-linejoin="round" stroke-linecap="butt" d="m137.60316 416.84207l-47.338577 -28.094482" fill-rule="nonzero"></path><path fill="#000000" fill-opacity="0.0" d="m90.252106 354.79227l54.48819 -68.28345" fill-rule="nonzero"></path><path stroke="#e87722" stroke-width="3.0" stroke-linejoin="round" stroke-linecap="butt" d="m90.252106 354.79227l54.48819 -68.28345" fill-rule="nonzero"></path><path fill="#000000" fill-opacity="0.0" d="m151.89006 410.92426l7.1496124 -118.48819" fill-rule="nonzero"></path><path stroke="#e87722" stroke-width="3.0" stroke-linejoin="round" stroke-linecap="butt" d="m151.89006 410.92426l7.1496124 -118.48819" fill-rule="nonzero"></path><path fill="#000000" fill-opacity="0.0" d="m317.27588 460.65652l-219.30707 -88.88187" fill-rule="nonzero"></path><path stroke="#e87722" stroke-width="3.0" stroke-linejoin="round" stroke-linecap="butt" d="m317.27588 460.65652l-219.30707 -88.88187" fill-rule="nonzero"></path><path fill="#000000" fill-opacity="0.0" d="m499.26773 455.12766l-234.48819 -87.1496" fill-rule="nonzero"></path><path stroke="#e87722" stroke-width="3.0" stroke-linejoin="round" stroke-linecap="butt" d="m499.26773 455.12766l-234.48819 -87.1496" fill-rule="nonzero"></path><path fill="#000000" fill-opacity="0.0" d="m26.516552 559.90405l111.08661 -114.48819" fill-rule="nonzero"></path><path stroke="#e87722" stroke-width="3.0" stroke-linejoin="round" stroke-linecap="butt" d="m26.516552 559.90405l111.08661 -114.48819" fill-rule="nonzero"></path><path fill="#000000" fill-opacity="0.0" d="m-88.83418 537.26886l141.82677 -148.53546" fill-rule="nonzero"></path><path stroke="#e87722" stroke-width="3.0" stroke-linejoin="round" stroke-linecap="butt" d="m-88.83418 537.26886l141.82677 -148.53546" fill-rule="nonzero"></path><path fill="#000000" fill-opacity="0.0" d="m-52.10977 220.74503l105.102356 134.04724" fill-rule="nonzero"></path><path stroke="#e87722" stroke-width="3.0" stroke-linejoin="round" stroke-linecap="butt" d="m-52.10977 220.74503l105.102356 134.04724" fill-rule="nonzero"></path><path fill="#000000" fill-opacity="0.0" d="m-5.454576 187.35783l150.20473 70.58266" fill-rule="nonzero"></path><path stroke="#e87722" stroke-width="3.0" stroke-linejoin="round" stroke-linecap="butt" d="m-5.454576 187.35783l150.20473 70.58266" fill-rule="nonzero"></path><path fill="#000000" fill-opacity="0.0" d="m149.4578 610.1026l176.15747 -128.56693" fill-rule="nonzero"></path><path stroke="#e87722" stroke-width="3.0" stroke-linejoin="round" stroke-linecap="butt" d="m149.4578 610.1026l176.15747 -128.56693" fill-rule="nonzero"></path><path fill="#000000" fill-opacity="0.0" d="m521.25146 590.32306l-155.37009 -108.787384" fill-rule="nonzero"></path><path stroke="#e87722" stroke-width="3.0" stroke-linejoin="round" stroke-linecap="butt" d="m521.25146 590.32306l-155.37009 -108.787384" fill-rule="nonzero"></path><path fill="#000000" fill-opacity="0.0" d="m1149.063 393.2694l-602.45667 61.858246" fill-rule="nonzero"></path><path stroke="#e87722" stroke-width="3.0" stroke-linejoin="round" stroke-linecap="butt" d="m1149.063 393.2694l-602.45667 61.858246" fill-rule="nonzero"></path><path fill="#000000" fill-opacity="0.0" d="m504.95276 554.2143l17.984253 -75.08664" fill-rule="nonzero"></path><path stroke="#e87722" stroke-width="3.0" stroke-linejoin="round" stroke-linecap="butt" d="m504.95276 554.2143l17.984253 -75.08664" fill-rule="nonzero"></path></g></svg>

