<?xml version="1.0" standalone="yes"?>

<svg version="1.1" viewBox="0.0 0.0 936.994750656168 303.68503937007875" fill="none" stroke="none" stroke-linecap="square" stroke-miterlimit="10" xmlns="http://www.w3.org/2000/svg" xmlns:xlink="http://www.w3.org/1999/xlink"><clipPath id="p.0"><path d="m0 0l936.99475 0l0 303.68503l-936.99475 0l0 -303.68503z" clip-rule="nonzero"></path></clipPath><g clip-path="url(#p.0)"><path fill="#002058" d="m0 0l936.99475 0l0 303.68503l-936.99475 0z" fill-rule="nonzero"></path><path fill="#000000" fill-opacity="0.0" d="m264.76932 183.96756l0 0c0 11.158768 -9.045944 20.204727 -20.204712 20.204727l0 0c-5.3586273 0 -10.497772 -2.128708 -14.286896 -5.9178314c-3.7891235 -3.7891235 -5.9178314 -8.928268 -5.9178314 -14.286896l0 0c0 -11.158768 9.045959 -20.204727 20.204727 -20.204727l0 0c11.158768 0 20.204712 9.045959 20.204712 20.204727z" fill-rule="nonzero"></path><path stroke="#e87722" stroke-width="4.0" stroke-linejoin="round" stroke-linecap="butt" d="m264.76932 183.96756l0 0c0 11.158768 -9.045944 20.204727 -20.204712 20.204727l0 0c-5.3586273 0 -10.497772 -2.128708 -14.286896 -5.9178314c-3.7891235 -3.7891235 -5.9178314 -8.928268 -5.9178314 -14.286896l0 0c0 -11.158768 9.045959 -20.204727 20.204727 -20.204727l0 0c11.158768 0 20.204712 9.045959 20.204712 20.204727z" fill-rule="nonzero"></path><path fill="#000000" fill-opacity="0.0" d="m374.22076 276.65652l0 0c0 16.307648 -12.747528 29.527557 -28.472443 29.527557l0 0c-7.551361 0 -14.7934265 -3.1109009 -20.133057 -8.648407c-5.3395996 -5.537506 -8.339386 -13.047943 -8.339386 -20.87915l0 0c0 -16.307617 12.747559 -29.527542 28.472443 -29.527542l0 0c15.724915 0 28.472443 13.219925 28.472443 29.527542z" fill-rule="nonzero"></path><path stroke="#e87722" stroke-width="4.0" stroke-linejoin="round" stroke-linecap="butt" d="m374.22076 276.65652l0 0c0 16.307648 -12.747528 29.527557 -28.472443 29.527557l0 0c-7.551361 0 -14.7934265 -3.1109009 -20.133057 -8.648407c-5.3395996 -5.537506 -8.339386 -13.047943 -8.339386 -20.87915l0 0c0 -16.307617 12.747559 -29.527542 28.472443 -29.527542l0 0c15.724915 0 28.472443 13.219925 28.472443 29.527542z" fill-rule="nonzero"></path><path fill="#000000" fill-opacity="0.0" d="m431.57117 183.96756l0 0c0 11.158768 -9.045959 20.204727 -20.204712 20.204727l0 0c-5.3586426 0 -10.497803 -2.128708 -14.286896 -5.9178314c-3.7891235 -3.7891235 -5.9178467 -8.928268 -5.9178467 -14.286896l0 0c0 -11.158768 9.045959 -20.204727 20.204742 -20.204727l0 0c11.158752 0 20.204712 9.045959 20.204712 20.204727z" fill-rule="nonzero"></path><path stroke="#e87722" stroke-width="4.0" stroke-linejoin="round" stroke-linecap="butt" d="m431.57117 183.96756l0 0c0 11.158768 -9.045959 20.204727 -20.204712 20.204727l0 0c-5.3586426 0 -10.497803 -2.128708 -14.286896 -5.9178314c-3.7891235 -3.7891235 -5.9178467 -8.928268 -5.9178467 -14.286896l0 0c0 -11.158768 9.045959 -20.204727 20.204742 -20.204727l0 0c11.158752 0 20.204712 9.045959 20.204712 20.204727z" fill-rule="nonzero"></path><path fill="#000000" fill-opacity="0.0" d="m172.09479 247.12898l0 0c0 11.158768 -9.045959 20.204727 -20.204727 20.204727l0 0c-5.3586273 0 -10.497772 -2.1287231 -14.286896 -5.9178467c-3.7891235 -3.789093 -5.9178314 -8.928253 -5.9178314 -14.2868805l0 0c0 -11.158768 9.045975 -20.204727 20.204727 -20.204727l0 0c11.158768 0 20.204727 9.045959 20.204727 20.204727z" fill-rule="nonzero"></path><path stroke="#e87722" stroke-width="4.0" stroke-linejoin="round" stroke-linecap="butt" d="m172.09479 247.12898l0 0c0 11.158768 -9.045959 20.204727 -20.204727 20.204727l0 0c-5.3586273 0 -10.497772 -2.1287231 -14.286896 -5.9178467c-3.7891235 -3.789093 -5.9178314 -8.928253 -5.9178314 -14.2868805l0 0c0 -11.158768 9.045975 -20.204727 20.204727 -20.204727l0 0c11.158768 0 20.204727 9.045959 20.204727 20.204727z" fill-rule="nonzero"></path><path fill="#000000" fill-opacity="0.0" d="m546.6063 271.12766l0 0c0 13.254852 -10.597107 24.0 -23.669312 24.0l0 0c-6.277466 0 -12.297882 -2.5285645 -16.736725 -7.029419c-4.438843 -4.500885 -6.932556 -10.605377 -6.932556 -16.970581l0 0c0 -13.254822 10.597076 -23.999985 23.669281 -23.999985l0 0c13.072205 0 23.669312 10.745163 23.669312 23.999985z" fill-rule="nonzero"></path><path stroke="#e87722" stroke-width="4.0" stroke-linejoin="round" stroke-linecap="butt" d="m546.6063 271.12766l0 0c0 13.254852 -10.597107 24.0 -23.669312 24.0l0 0c-6.277466 0 -12.297882 -2.5285645 -16.736725 -7.029419c-4.438843 -4.500885 -6.932556 -10.605377 -6.932556 -16.970581l0 0c0 -13.254822 10.597076 -23.999985 23.669281 -23.999985l0 0c13.072205 0 23.669312 10.745163 23.669312 23.999985z" fill-rule="nonzero"></path><path fill="#000000" fill-opacity="0.0" d="m97.9688 187.76283l0 0c0 13.254837 -11.795708 24.0 -26.346458 24.0l0 0c-14.550743 0 -26.346455 -10.745163 -26.346455 -24.0l0 0c0 -13.254837 11.7957115 -24.0 26.346455 -24.0l0 0c14.550751 0 26.346458 10.745163 26.346458 24.0z" fill-rule="nonzero"></path><path stroke="#e87722" stroke-width="4.0" stroke-linejoin="round" stroke-linecap="butt" d="m97.9688 187.76283l0 0c0 13.254837 -11.795708 24.0 -26.346458 24.0l0 0c-14.550743 0 -26.346455 -10.745163 -26.346455 -24.0l0 0c0 -13.254837 11.7957115 -24.0 26.346455 -24.0l0 0c14.550751 0 26.346458 10.745163 26.346458 24.0z" fill-rule="nonzero"></path><path fill="#000000" fill-opacity="0.0" d="m172.09479 133.12767l0 0c0 11.158752 -9.045959 20.204727 -20.204727 20.204727l0 0c-5.3586273 0 -10.497772 -2.128708 -14.286896 -5.9178314c-3.7891235 -3.7891235 -5.9178314 -8.928268 -5.9178314 -14.286896l0 0c0 -11.158768 9.045975 -20.204727 20.204727 -20.204727l0 0c11.158768 0 20.204727 9.045959 20.204727 20.204727z" fill-rule="nonzero"></path><path stroke="#e87722" stroke-width="4.0" stroke-linejoin="round" stroke-linecap="butt" d="m172.09479 133.12767l0 0c0 11.158752 -9.045959 20.204727 -20.204727 20.204727l0 0c-5.3586273 0 -10.497772 -2.128708 -14.286896 -5.9178314c-3.7891235 -3.7891235 -5.9178314 -8.928268 -5.9178314 -14.286896l0 0c0 -11.158768 9.045975 -20.204727 20.204727 -20.204727l0 0c11.158768 0 20.204727 9.045959 20.204727 20.204727z" fill-rule="nonzero"></path><path fill="#000000" fill-opacity="0.0" d="m358.6066 120.009186l0 0c0 15.133469 -11.795715 27.40158 -26.346466 27.40158l0 0c-6.9875183 0 -13.688843 -2.8869476 -18.62976 -8.025742c-4.940918 -5.138794 -7.716675 -12.10849 -7.716675 -19.37584l0 0c0 -15.133469 11.795715 -27.401573 26.346436 -27.401573l0 0c14.550751 0 26.346466 12.268105 26.346466 27.401573z" fill-rule="nonzero"></path><path stroke="#e87722" stroke-width="4.0" stroke-linejoin="round" stroke-linecap="butt" d="m358.6066 120.009186l0 0c0 15.133469 -11.795715 27.40158 -26.346466 27.40158l0 0c-6.9875183 0 -13.688843 -2.8869476 -18.62976 -8.025742c-4.940918 -5.138794 -7.716675 -12.10849 -7.716675 -19.37584l0 0c0 -15.133469 11.795715 -27.401573 26.346436 -27.401573l0 0c14.550751 0 26.346466 12.268105 26.346466 27.401573z" fill-rule="nonzero"></path><path fill="#000000" fill-opacity="0.0" d="m499.26773 271.12766l-125.0394 5.5433044" fill-rule="nonzero"></path><path stroke="#e87722" stroke-width="3.0" stroke-linejoin="round" stroke-linecap="butt" d="m499.26773 271.12766l-125.0394 5.5433044" fill-rule="nonzero"></path><path fill="#000000" fill-opacity="0.0" d="m317.27588 276.65652l-145.16534 -29.511795" fill-rule="nonzero"></path><path stroke="#e87722" stroke-width="3.0" stroke-linejoin="round" stroke-linecap="butt" d="m317.27588 276.65652l-145.16534 -29.511795" fill-rule="nonzero"></path><path fill="#000000" fill-opacity="0.0" d="m506.2003 254.1571l-80.53543 -55.905518" fill-rule="nonzero"></path><path stroke="#e87722" stroke-width="3.0" stroke-linejoin="round" stroke-linecap="butt" d="m506.2003 254.1571l-80.53543 -55.905518" fill-rule="nonzero"></path><path fill="#000000" fill-opacity="0.0" d="m365.88138 255.7774l31.212616 -57.51181" fill-rule="nonzero"></path><path stroke="#e87722" stroke-width="3.0" stroke-linejoin="round" stroke-linecap="butt" d="m365.88138 255.7774l31.212616 -57.51181" fill-rule="nonzero"></path><path fill="#000000" fill-opacity="0.0" d="m325.61526 255.7774l-66.77164 -57.51181" fill-rule="nonzero"></path><path stroke="#e87722" stroke-width="3.0" stroke-linejoin="round" stroke-linecap="butt" d="m325.61526 255.7774l-66.77164 -57.51181" fill-rule="nonzero"></path><path fill="#000000" fill-opacity="0.0" d="m345.74832 247.12898l-13.480316 -99.71654" fill-rule="nonzero"></path><path stroke="#e87722" stroke-width="3.0" stroke-linejoin="round" stroke-linecap="butt" d="m345.74832 247.12898l-13.480316 -99.71654" fill-rule="nonzero"></path><path fill="#000000" fill-opacity="0.0" d="m230.27771 169.68066l-64.0945 -22.267715" fill-rule="nonzero"></path><path stroke="#e87722" stroke-width="3.0" stroke-linejoin="round" stroke-linecap="butt" d="m230.27771 169.68066l-64.0945 -22.267715" fill-rule="nonzero"></path><path fill="#000000" fill-opacity="0.0" d="m397.07956 169.68066l-46.204742 -30.29921" fill-rule="nonzero"></path><path stroke="#e87722" stroke-width="3.0" stroke-linejoin="round" stroke-linecap="butt" d="m397.07956 169.68066l-46.204742 -30.29921" fill-rule="nonzero"></path><path fill="#000000" fill-opacity="0.0" d="m313.63037 139.38503l-54.771637 30.29921" fill-rule="nonzero"></path><path stroke="#e87722" stroke-width="3.0" stroke-linejoin="round" stroke-linecap="butt" d="m313.63037 139.38503l-54.771637 30.29921" fill-rule="nonzero"></path><path fill="#000000" fill-opacity="0.0" d="m305.9137 120.009186l-133.82678 13.133865" fill-rule="nonzero"></path><path stroke="#e87722" stroke-width="3.0" stroke-linejoin="round" stroke-linecap="butt" d="m305.9137 120.009186l-133.82678 13.133865" fill-rule="nonzero"></path><path fill="#000000" fill-opacity="0.0" d="m230.27771 198.25446l-64.0945 34.582687" fill-rule="nonzero"></path><path stroke="#e87722" stroke-width="3.0" stroke-linejoin="round" stroke-linecap="butt" d="m230.27771 198.25446l-64.0945 34.582687" fill-rule="nonzero"></path><path fill="#000000" fill-opacity="0.0" d="m137.60316 232.84209l-47.338577 -28.094498" fill-rule="nonzero"></path><path stroke="#e87722" stroke-width="3.0" stroke-linejoin="round" stroke-linecap="butt" d="m137.60316 232.84209l-47.338577 -28.094498" fill-rule="nonzero"></path><path fill="#000000" fill-opacity="0.0" d="m90.252106 170.79227l47.338577 -23.370071" fill-rule="nonzero"></path><path stroke="#e87722" stroke-width="3.0" stroke-linejoin="round" stroke-linecap="butt" d="m90.252106 170.79227l47.338577 -23.370071" fill-rule="nonzero"></path><path fill="#000000" fill-opacity="0.0" d="m151.89006 226.92426l0 -73.60631" fill-rule="nonzero"></path><path stroke="#e87722" stroke-width="3.0" stroke-linejoin="round" stroke-linecap="butt" d="m151.89006 226.92426l0 -73.60631" fill-rule="nonzero"></path><path fill="#000000" fill-opacity="0.0" d="m317.27588 276.65652l-219.30707 -88.88188" fill-rule="nonzero"></path><path stroke="#e87722" stroke-width="3.0" stroke-linejoin="round" stroke-linecap="butt" d="m317.27588 276.65652l-219.30707 -88.88188" fill-rule="nonzero"></path><path fill="#000000" fill-opacity="0.0" d="m499.26773 271.12766l-234.48819 -87.1496" fill-rule="nonzero"></path><path stroke="#e87722" stroke-width="3.0" stroke-linejoin="round" stroke-linecap="butt" d="m499.26773 271.12766l-234.48819 -87.1496" fill-rule="nonzero"></path><path fill="#000000" fill-opacity="0.0" d="m26.516552 375.90405l111.08661 -114.48819" fill-rule="nonzero"></path><path stroke="#e87722" stroke-width="3.0" stroke-linejoin="round" stroke-linecap="butt" d="m26.516552 375.90405l111.08661 -114.48819" fill-rule="nonzero"></path><path fill="#000000" fill-opacity="0.0" d="m-88.83418 353.26883l141.82677 -148.53543" fill-rule="nonzero"></path><path stroke="#e87722" stroke-width="3.0" stroke-linejoin="round" stroke-linecap="butt" d="m-88.83418 353.26883l141.82677 -148.53543" fill-rule="nonzero"></path><path fill="#000000" fill-opacity="0.0" d="m-52.10977 36.74503l105.102356 134.04724" fill-rule="nonzero"></path><path stroke="#e87722" stroke-width="3.0" stroke-linejoin="round" stroke-linecap="butt" d="m-52.10977 36.74503l105.102356 134.04724" fill-rule="nonzero"></path><path fill="#000000" fill-opacity="0.0" d="m-12.601558 48.25809l150.20473 70.58267" fill-rule="nonzero"></path><path stroke="#e87722" stroke-width="3.0" stroke-linejoin="round" stroke-linecap="butt" d="m-12.601558 48.25809l150.20473 70.58267" fill-rule="nonzero"></path><path fill="#000000" fill-opacity="0.0" d="m149.4578 426.1026l176.15747 -128.56693" fill-rule="nonzero"></path><path stroke="#e87722" stroke-width="3.0" stroke-linejoin="round" stroke-linecap="butt" d="m149.4578 426.1026l176.15747 -128.56693" fill-rule="nonzero"></path><path fill="#000000" fill-opacity="0.0" d="m521.25146 406.3231l-155.37009 -108.787415" fill-rule="nonzero"></path><path stroke="#e87722" stroke-width="3.0" stroke-linejoin="round" stroke-linecap="butt" d="m521.25146 406.3231l-155.37009 -108.787415" fill-rule="nonzero"></path><path fill="#000000" fill-opacity="0.0" d="m1149.063 209.2694l-602.45667 61.85826" fill-rule="nonzero"></path><path stroke="#e87722" stroke-width="3.0" stroke-linejoin="round" stroke-linecap="butt" d="m1149.063 209.2694l-602.45667 61.85826" fill-rule="nonzero"></path><path fill="#000000" fill-opacity="0.0" d="m504.95276 370.2143l17.984253 -75.08664" fill-rule="nonzero"></path><path stroke="#e87722" stroke-width="3.0" stroke-linejoin="round" stroke-linecap="butt" d="m504.95276 370.2143l17.984253 -75.08664" fill-rule="nonzero"></path></g></svg>

